
<svg width="179px" height="47px" viewBox="0 0 179 47" version="1.1" xmlns="http://www.w3.org/2000/svg" xmlns:xlink="http://www.w3.org/1999/xlink">
    <!-- Generator: Sketch 50.2 (55047) - http://www.bohemiancoding.com/sketch -->
    <desc>Created with Sketch.</desc>
    <defs></defs>
    <g id="Logo" stroke="none" stroke-width="1" fill="none" fill-rule="evenodd">
        <g id="color-on-dark" transform="translate(-255.000000, -197.000000)">
            <g id="Group" transform="translate(253.000000, 195.000000)">
                <path d="M19.5510917,14.3926331 C16.3536537,14.3926331 13.761618,11.8005974 13.761618,8.60315938 C13.761618,5.40572135 16.3536537,2.81368569 19.5510917,2.81368569 C22.7485297,2.81368569 25.3405654,5.40572135 25.3405654,8.60315938 C25.3405654,11.8005974 22.7485297,14.3926331 19.5510917,14.3926331 Z M19.5510917,10.7634421 C20.7441829,10.7634421 21.7113744,9.79625056 21.7113744,8.60315938 C21.7113744,7.4100682 20.7441829,6.4428767 19.5510917,6.4428767 C18.3580005,6.4428767 17.390809,7.4100682 17.390809,8.60315938 C17.390809,9.79625056 18.3580005,10.7634421 19.5510917,10.7634421 Z" id="Oval-2-Copy-7" fill="#7961FF" fill-rule="nonzero" transform="translate(19.551092, 8.603159) rotate(45.000000) translate(-19.551092, -8.603159) "></path>
                <path d="M31.0136648,25.8552061 C27.8162268,25.8552061 25.2241911,23.2631705 25.2241911,20.0657325 C25.2241911,16.8682944 27.8162268,14.2762588 31.0136648,14.2762588 C34.2111028,14.2762588 36.8031385,16.8682944 36.8031385,20.0657325 C36.8031385,23.2631705 34.2111028,25.8552061 31.0136648,25.8552061 Z M31.0136648,22.2260151 C32.206756,22.2260151 33.1739475,21.2588236 33.1739475,20.0657325 C33.1739475,18.8726413 32.206756,17.9054498 31.0136648,17.9054498 C29.8205736,17.9054498 28.8533821,18.8726413 28.8533821,20.0657325 C28.8533821,21.2588236 29.8205736,22.2260151 31.0136648,22.2260151 Z" id="Oval-2-Copy-8" fill="#FF5B1A" fill-rule="nonzero" transform="translate(31.013665, 20.065732) rotate(45.000000) translate(-31.013665, -20.065732) "></path>
                <path d="M42.4762379,37.3177792 C39.2787998,37.3177792 36.6867642,34.7257436 36.6867642,31.5283055 C36.6867642,28.3308675 39.2787998,25.7388319 42.4762379,25.7388319 C45.6736759,25.7388319 48.2657115,28.3308675 48.2657115,31.5283055 C48.2657115,34.7257436 45.6736759,37.3177792 42.4762379,37.3177792 Z M42.4762379,33.6885882 C43.669329,33.6885882 44.6365205,32.7213967 44.6365205,31.5283055 C44.6365205,30.3352144 43.669329,29.3680229 42.4762379,29.3680229 C41.2831467,29.3680229 40.3159552,30.3352144 40.3159552,31.5283055 C40.3159552,32.7213967 41.2831467,33.6885882 42.4762379,33.6885882 Z" id="Oval-2-Copy-9" fill="#FF5B1A" fill-rule="nonzero" transform="translate(42.476238, 31.528306) rotate(45.000000) translate(-42.476238, -31.528306) "></path>
                <path d="M8.49789622,25.4458285 C5.3004582,25.4458285 2.70842254,22.8537929 2.70842254,19.6563549 C2.70842254,16.4589168 5.3004582,13.8668812 8.49789622,13.8668812 C11.6953342,13.8668812 14.2873699,16.4589168 14.2873699,19.6563549 C14.2873699,22.8537929 11.6953342,25.4458285 8.49789622,25.4458285 Z M8.49789622,21.8166375 C9.6909874,21.8166375 10.6581789,20.849446 10.6581789,19.6563549 C10.6581789,18.4632637 9.6909874,17.4960722 8.49789622,17.4960722 C7.30480504,17.4960722 6.33761354,18.4632637 6.33761354,19.6563549 C6.33761354,20.849446 7.30480504,21.8166375 8.49789622,21.8166375 Z" id="Oval-2-Copy-12" fill="#7961FF" fill-rule="nonzero" transform="translate(8.497896, 19.656355) rotate(45.000000) translate(-8.497896, -19.656355) "></path>
                <path d="M19.9604693,36.9084016 C16.7630313,36.9084016 14.1709956,34.316366 14.1709956,31.1189279 C14.1709956,27.9214899 16.7630313,25.3294543 19.9604693,25.3294543 C23.1579073,25.3294543 25.749943,27.9214899 25.749943,31.1189279 C25.749943,34.316366 23.1579073,36.9084016 19.9604693,36.9084016 Z M19.9604693,33.2792106 C21.1535605,33.2792106 22.120752,32.3120191 22.120752,31.1189279 C22.120752,29.9258368 21.1535605,28.9586453 19.9604693,28.9586453 C18.7673781,28.9586453 17.8001866,29.9258368 17.8001866,31.1189279 C17.8001866,32.3120191 18.7673781,33.2792106 19.9604693,33.2792106 Z" id="Oval-2-Copy-11" fill="#7961FF" fill-rule="nonzero" transform="translate(19.960469, 31.118928) rotate(45.000000) translate(-19.960469, -31.118928) "></path>
                <path d="M31.4230424,48.3709747 C28.2256044,48.3709747 25.6335687,45.778939 25.6335687,42.581501 C25.6335687,39.384063 28.2256044,36.7920273 31.4230424,36.7920273 C34.6204804,36.7920273 37.2125161,39.384063 37.2125161,42.581501 C37.2125161,45.778939 34.6204804,48.3709747 31.4230424,48.3709747 Z M31.4230424,44.7417837 C32.6161336,44.7417837 33.5833251,43.7745922 33.5833251,42.581501 C33.5833251,41.3884098 32.6161336,40.4212183 31.4230424,40.4212183 C30.2299512,40.4212183 29.2627597,41.3884098 29.2627597,42.581501 C29.2627597,43.7745922 30.2299512,44.7417837 31.4230424,44.7417837 Z" id="Oval-2-Copy-10" fill="#FF5B1A" fill-rule="nonzero" transform="translate(31.423042, 42.581501) rotate(45.000000) translate(-31.423042, -42.581501) "></path>
                <rect id="Rectangle-16" fill="#FF5B1A" transform="translate(36.540263, 25.592330) rotate(45.000000) translate(-36.540263, -25.592330) " x="32.1981573" y="23.8554881" width="8.68421053" height="3.47368421"></rect>
                <rect id="Rectangle-16-Copy" fill="#7961FF" transform="translate(13.615116, 24.773575) rotate(45.000000) translate(-13.615116, -24.773575) " x="9.27301109" y="23.0367329" width="8.68421053" height="3.47368421"></rect>
                <rect id="Rectangle-16-Copy-2" fill="#7961FF" transform="translate(13.205739, 14.948512) rotate(45.000000) translate(-13.205739, -14.948512) " x="11.4688966" y="11.1853544" width="3.47368421" height="7.52631579"></rect>
                <rect id="Rectangle-16-Copy-3" fill="#FF5B1A" transform="translate(36.130885, 37.873659) rotate(45.000000) translate(-36.130885, -37.873659) " x="34.3940428" y="34.1105006" width="3.47368421" height="7.52631579"></rect>
                <path d="M68.291,37.276 C64.726,37.276 61.713,34.424 61.713,31.043 C61.713,27.662 64.749,24.833 68.337,24.833 C70.361,24.833 71.994,25.661 73.144,26.949 L70.568,29.088 C70.039,28.513 69.142,28.076 68.314,28.076 C66.773,28.076 65.462,29.433 65.462,31.02 C65.462,32.653 66.773,34.033 68.314,34.033 C69.165,34.033 70.085,33.596 70.637,32.975 L73.213,35.091 C72.04,36.425 70.384,37.276 68.291,37.276 Z M80.964,37.276 C77.376,37.276 74.363,34.424 74.363,31.043 C74.363,27.662 77.376,24.833 80.964,24.833 C84.552,24.833 87.565,27.662 87.565,31.043 C87.565,34.424 84.552,37.276 80.964,37.276 Z M80.964,34.033 C82.551,34.033 83.885,32.653 83.885,31.043 C83.885,29.433 82.551,28.076 80.964,28.076 C79.377,28.076 78.043,29.433 78.043,31.043 C78.043,32.653 79.377,34.033 80.964,34.033 Z M98.375,20.923 L102.285,20.923 L102.285,37 L98.375,37 L98.375,35.482 C97.432,36.609 96.075,37.276 94.488,37.276 C91.291,37.276 89.037,34.7 89.037,31.043 C89.037,27.409 91.291,24.833 94.488,24.833 C96.075,24.833 97.432,25.5 98.375,26.627 L98.375,20.923 Z M95.661,34.033 C97.271,34.033 98.375,32.791 98.375,31.043 C98.375,29.318 97.271,28.076 95.661,28.076 C93.982,28.076 92.786,29.318 92.786,31.043 C92.786,32.791 93.982,34.033 95.661,34.033 Z M110.588,34.125 C111.508,34.125 112.566,33.734 113.279,33.113 L115.579,35.436 C114.521,36.517 112.474,37.276 110.703,37.276 C107.023,37.276 104.309,34.677 104.309,31.02 C104.309,27.409 106.931,24.833 110.519,24.833 C114.291,24.833 116.499,27.593 116.499,32.124 L108.012,32.124 C108.38,33.32 109.323,34.125 110.588,34.125 Z M110.588,27.961 C109.415,27.961 108.472,28.651 108.058,29.755 L112.888,29.755 C112.566,28.674 111.761,27.961 110.588,27.961 Z M118.178,37 L118.178,33.803 L124.02,29.433 C125.791,28.099 126.297,27.225 126.297,26.259 C126.297,25.178 125.354,24.488 124.204,24.488 C122.732,24.488 121.628,25.201 120.432,26.466 L117.971,24.028 C119.65,22.004 121.697,20.923 124.296,20.923 C127.838,20.923 130.322,23.085 130.322,26.098 C130.322,28.191 129.448,29.824 126.688,31.71 L124.204,33.481 L130.483,33.481 L130.483,37 L118.178,37 Z M137.222,24.787 L137.222,25.109 L139.683,25.109 L139.683,28.214 L137.222,28.214 L137.222,37 L133.496,37 L133.496,28.214 L131.932,28.214 L131.932,25.109 L133.496,25.109 L133.496,24.258 C133.496,22.027 135.06,20.44 137.291,20.44 C138.303,20.44 139.476,20.9 140.189,21.567 L139.407,23.89 C139.177,23.66 138.74,23.499 138.303,23.499 C137.682,23.499 137.222,24.028 137.222,24.787 Z M141.73,37 L141.73,20.923 L145.64,20.923 L145.64,37 L141.73,37 Z M154.311,37.276 C150.723,37.276 147.71,34.424 147.71,31.043 C147.71,27.662 150.723,24.833 154.311,24.833 C157.899,24.833 160.912,27.662 160.912,31.043 C160.912,34.424 157.899,37.276 154.311,37.276 Z M154.311,34.033 C155.898,34.033 157.232,32.653 157.232,31.043 C157.232,29.433 155.898,28.076 154.311,28.076 C152.724,28.076 151.39,29.433 151.39,31.043 C151.39,32.653 152.724,34.033 154.311,34.033 Z M165.972,37 L161.901,25.109 L165.673,25.109 L167.674,31.779 L169.721,25.109 L172.918,25.109 L174.988,31.779 L176.989,25.109 L180.761,25.109 L176.713,37 L173.24,37 L171.331,30.215 L169.445,37 L165.972,37 Z" id="code2flow-copy-3" fill="#FFFFFF"></path>
            </g>
        </g>
    </g>
</svg>